<svg viewBox="0 0 24 24" fill="currentColor" xmlns="http://www.w3.org/2000/svg">
  <path d="M13.13 2.18c-1.85-.3-3.69.3-5.02 1.63L6.44 5.5l5.66 5.66 1.69-1.69c1.32-1.32 1.93-3.17 1.63-5.02L15 4l-.87-.87-.99.99-.01-.01.01.01-1.02.99L12.12 3l-.87-.87.87.87.01-.01-.01.01.99.99-.99-.99zm-5.09 5.9L2.38 13.74c-.49.49-.49 1.28 0 1.77l1.41 1.41c.49.49 1.28.49 1.77 0l5.66-5.66-4.24-4.24-.95.06zm8.84-2.83l-5.66 5.66 4.24 4.24 5.66-5.66c.49-.49.49-1.28 0-1.77l-1.41-1.41c-.49-.49-1.28-.49-1.77 0l-1.06 1.94zM2 22l2-6 4 4-6 2z"/>
</svg>
