<svg viewBox="0 0 24 24" fill="currentColor" xmlns="http://www.w3.org/2000/svg">
  <path d="M5.042 15.165a2.528 2.528 0 0 1-2.52 2.523 2.528 2.528 0 0 1-2.522-2.523 2.528 2.528 0 0 1 2.522-2.52h2.52v2.52zm1.261 0a2.528 2.528 0 0 1 2.52-2.52h5.043a2.528 2.528 0 0 1 2.522 2.52v5.043a2.528 2.528 0 0 1-2.522 2.52H8.823a2.528 2.528 0 0 1-2.52-2.52v-5.043zm2.52-6.326a2.528 2.528 0 0 1-2.52-2.52 2.528 2.528 0 0 1 2.52-2.522 2.528 2.528 0 0 1 2.52 2.522v2.52h-2.52zm0 1.261a2.528 2.528 0 0 1 2.52 2.52v5.043a2.528 2.528 0 0 1-2.52 2.522H3.782a2.528 2.528 0 0 1-2.52-2.522V10.1a2.528 2.528 0 0 1 2.52-2.52h5.041zm6.326-2.52a2.528 2.528 0 0 1 2.52-2.52 2.528 2.528 0 0 1 2.522 2.52 2.528 2.528 0 0 1-2.522 2.52h-2.52v-2.52zm-1.262 0a2.528 2.528 0 0 1-2.52 2.52H8.825a2.528 2.528 0 0 1-2.522-2.52V3.782a2.528 2.528 0 0 1 2.522-2.52H12.6a2.528 2.528 0 0 1 2.52 2.52v5.041zm-2.52 6.326a2.528 2.528 0 0 1 2.52 2.52 2.528 2.528 0 0 1-2.52 2.522 2.528 2.528 0 0 1-2.52-2.522v-2.52h2.52zm0-1.262a2.528 2.528 0 0 1-2.52-2.52V8.825a2.528 2.528 0 0 1 2.52-2.522h5.043a2.528 2.528 0 0 1 2.52 2.522V12.6a2.528 2.528 0 0 1-2.52 2.52h-5.043z"/>
</svg>
